<svg width="294" height="15" viewBox="0 0 294 15" fill="none" xmlns="http://www.w3.org/2000/svg">
<path d="M293.707 8.20711C294.098 7.81659 294.098 7.18343 293.707 6.7929L287.343 0.428879C286.953 0.038351 286.32 0.038345 285.929 0.428866C285.538 0.819386 285.538 1.45255 285.929 1.84308L291.586 7.49999L285.929 13.1568C285.538 13.5473 285.538 14.1805 285.929 14.571C286.319 14.9615 286.953 14.9615 287.343 14.571L293.707 8.20711ZM11.3333 7.49735C11.3334 4.55183 8.94558 2.164 6.00005 2.16397C3.05452 2.16394 0.666684 4.55173 0.666656 7.49725C0.666629 10.4428 3.05442 12.8306 5.99995 12.8306C8.94548 12.8307 11.3333 10.4429 11.3333 7.49735ZM293 6.5L6.00001 6.4973L5.99999 8.4973L293 8.5L293 6.5Z" fill="#404040"/>
</svg>
