<svg width="32" height="25" viewBox="0 0 32 25" fill="none" xmlns="http://www.w3.org/2000/svg">
<path d="M1.77778 25H30.2222C31.2 25 32 24.0625 32 22.9167C32 21.7708 31.2 20.8333 30.2222 20.8333H1.77778C0.8 20.8333 0 21.7708 0 22.9167C0 24.0625 0.8 25 1.77778 25ZM1.77778 14.5833H30.2222C31.2 14.5833 32 13.6458 32 12.5C32 11.3542 31.2 10.4167 30.2222 10.4167H1.77778C0.8 10.4167 0 11.3542 0 12.5C0 13.6458 0.8 14.5833 1.77778 14.5833ZM0 2.08333C0 3.22917 0.8 4.16667 1.77778 4.16667H30.2222C31.2 4.16667 32 3.22917 32 2.08333C32 0.9375 31.2 0 30.2222 0H1.77778C0.8 0 0 0.9375 0 2.08333Z" fill="white"/>
</svg>
